<svg width="869" height="292" viewBox="0 0 869 292" fill="none" xmlns="http://www.w3.org/2000/svg">
<path d="M40.6055 121.549C40.6055 124.146 39.8307 126.038 38.2812 127.223C36.7773 128.408 34.7949 129 32.334 129H12.5781C10.1172 129 8.11198 128.43 6.5625 127.291C5.01302 126.106 4.23828 124.192 4.23828 121.549C4.23828 119.361 4.80794 117.743 5.94727 116.695C7.13216 115.602 8.43099 114.394 9.84375 113.072C11.1198 111.887 12.0768 110.566 12.7148 109.107C13.3529 107.649 13.9453 106.122 14.4922 104.527L30.0098 57.9746C30.2832 57.1999 30.5339 56.4251 30.7617 55.6504C31.0352 54.8301 31.1719 53.987 31.1719 53.1211C31.1719 52.0729 30.8073 51.2526 30.0781 50.6602C29.3945 50.0677 28.597 49.4753 27.6855 48.8828C26.7741 48.2448 25.9538 47.4017 25.2246 46.3535C24.541 45.3053 24.1992 43.8014 24.1992 41.8418C24.1992 39.2441 24.9512 37.3529 26.4551 36.168C28.0046 34.9831 30.0098 34.3906 32.4707 34.3906H81.6895C84.1504 34.3906 86.1328 34.9831 87.6367 36.168C89.1862 37.3073 89.9609 39.1986 89.9609 41.8418C89.9609 43.7103 89.6419 45.1686 89.0039 46.2168C88.3659 47.2194 87.6367 48.0169 86.8164 48.6094C85.9961 49.2018 85.2669 49.8171 84.6289 50.4551C83.9909 51.0931 83.6719 51.959 83.6719 53.0527C83.6719 53.8275 83.763 54.6022 83.9453 55.377C84.1732 56.1061 84.401 56.8353 84.6289 57.5645L98.7793 98.9219C99.5085 101.064 100.078 103.001 100.488 104.732C100.944 106.464 101.605 108.082 102.471 109.586C103.337 111.044 104.749 112.525 106.709 114.029C108.258 115.169 109.352 116.217 109.99 117.174C110.628 118.085 110.947 119.544 110.947 121.549C110.947 124.192 110.173 126.106 108.623 127.291C107.119 128.43 105.137 129 102.676 129H67.7441C65.2832 129 63.278 128.43 61.7285 127.291C60.179 126.106 59.4043 124.192 59.4043 121.549C59.4043 119.68 59.7917 118.222 60.5664 117.174C61.3867 116.126 62.321 115.305 63.3691 114.713C64.4629 114.075 65.3971 113.505 66.1719 113.004C66.9922 112.457 67.4023 111.796 67.4023 111.021C67.4023 110.383 67.3112 109.745 67.1289 109.107C66.9922 108.469 66.8099 107.854 66.582 107.262L64.3945 100.289H32.4023L32.0605 101.246C31.696 102.34 31.2174 103.57 30.625 104.938C30.0326 106.259 29.7363 107.49 29.7363 108.629C29.7363 109.905 30.2832 110.953 31.377 111.773C32.4707 112.548 33.724 113.323 35.1367 114.098C36.5951 114.827 37.8711 115.761 38.9648 116.9C40.0586 118.04 40.6055 119.589 40.6055 121.549ZM37.3926 85.0449H59.541L48.6035 50.7969L37.3926 85.0449ZM156.338 130.436H145.674C142.712 130.436 140.319 129.547 138.496 127.77C136.719 125.992 135.283 123.85 134.189 121.344L114.98 77.6621C114.251 76.0671 113.636 74.8366 113.135 73.9707C112.633 73.1048 111.676 72.1022 110.264 70.9629C109.215 70.097 108.395 69.2767 107.803 68.502C107.256 67.7272 106.982 66.6107 106.982 65.1523C106.982 63.1016 107.643 61.5749 108.965 60.5723C110.332 59.5241 111.973 59 113.887 59H150.732C152.646 59 154.15 59.5469 155.244 60.6406C156.338 61.7344 156.885 63.2383 156.885 65.1523C156.885 66.793 156.452 68.0462 155.586 68.9121C154.72 69.778 153.717 70.5299 152.578 71.168C151.439 71.7604 150.436 72.4668 149.57 73.2871C148.704 74.1074 148.271 75.3151 148.271 76.9102C148.271 77.9128 148.385 78.9154 148.613 79.918C148.887 80.875 149.206 81.8092 149.57 82.7207L160.029 109.518L170.078 83.8145C170.443 82.8118 170.739 81.8092 170.967 80.8066C171.24 79.7585 171.377 78.7103 171.377 77.6621C171.377 75.8392 170.944 74.4948 170.078 73.6289C169.258 72.7174 168.278 71.9655 167.139 71.373C165.999 70.7806 164.997 70.0514 164.131 69.1855C163.311 68.2741 162.9 66.9297 162.9 65.1523C162.9 63.1016 163.538 61.5749 164.814 60.5723C166.09 59.5241 167.708 59 169.668 59H188.604C190.563 59 192.181 59.5013 193.457 60.5039C194.779 61.5065 195.439 63.056 195.439 65.1523C195.439 66.8385 195.12 68.069 194.482 68.8438C193.89 69.5729 193.001 70.4616 191.816 71.5098C190.085 73.0592 188.854 74.472 188.125 75.748C187.441 77.0241 186.667 78.7103 185.801 80.8066C182.884 87.6882 179.99 94.6152 177.119 101.588C174.248 108.515 171.195 115.374 167.959 122.164C166.729 124.671 165.225 126.676 163.447 128.18C161.67 129.684 159.3 130.436 156.338 130.436ZM194.824 113.277C194.824 109.085 195.804 105.598 197.764 102.818C199.723 99.9928 202.275 97.737 205.42 96.0508C208.61 94.319 212.051 93.0885 215.742 92.3594C219.434 91.6302 222.988 91.2656 226.406 91.2656C227.409 91.2656 228.434 91.2884 229.482 91.334C230.531 91.334 231.556 91.4251 232.559 91.6074V73.834C232.559 72.6947 232.308 71.373 231.807 69.8691C231.351 68.3652 230.394 67.6133 228.936 67.6133C227.523 67.6133 226.634 68.2057 226.27 69.3906C225.951 70.5299 225.791 71.6237 225.791 72.6719C225.791 73.1276 225.791 73.6061 225.791 74.1074C225.837 74.5632 225.859 75.0417 225.859 75.543C225.859 80.237 224.242 83.541 221.006 85.4551C217.77 87.3236 214.079 88.2578 209.932 88.2578C206.468 88.2578 203.46 87.4831 200.908 85.9336C198.356 84.3841 197.08 81.6497 197.08 77.7305C197.08 76.181 197.376 74.6771 197.969 73.2188C198.607 71.7604 199.404 70.4616 200.361 69.3223C203.141 65.9499 206.628 63.375 210.82 61.5977C215.059 59.8203 219.502 58.6126 224.15 57.9746C228.844 57.291 233.242 56.9492 237.344 56.9492C241.992 56.9492 246.253 57.61 250.127 58.9316C254.001 60.2533 257.1 62.4635 259.424 65.5625C261.748 68.6159 262.91 72.7402 262.91 77.9355V109.449C262.91 110.224 263.092 110.908 263.457 111.5C263.822 112.092 264.437 112.389 265.303 112.389C265.986 112.389 266.556 112.184 267.012 111.773C267.513 111.318 268.105 111.09 268.789 111.09C270.111 111.09 271.09 111.546 271.729 112.457C272.412 113.368 272.754 114.439 272.754 115.67C272.754 118.86 271.774 121.617 269.814 123.941C267.9 126.22 265.508 127.952 262.637 129.137C259.766 130.367 256.872 130.982 253.955 130.982C250.537 130.982 247.074 130.23 243.564 128.727C240.101 127.223 237.708 124.876 236.387 121.686C234.062 124.921 230.872 127.291 226.816 128.795C222.806 130.253 218.864 130.982 214.99 130.982C211.436 130.982 208.109 130.322 205.01 129C201.956 127.633 199.495 125.628 197.627 122.984C195.758 120.341 194.824 117.105 194.824 113.277ZM225.654 107.262C225.654 109.085 226.087 110.816 226.953 112.457C227.819 114.052 229.3 114.85 231.396 114.85C231.807 114.85 232.194 114.804 232.559 114.713V100.562C231.784 100.243 230.986 100.084 230.166 100.084C228.434 100.084 227.249 100.95 226.611 102.682C225.973 104.368 225.654 105.895 225.654 107.262ZM306.523 56.8125C308.392 56.8125 309.805 57.4733 310.762 58.7949C311.764 60.071 312.266 61.5749 312.266 63.3066V69.5957C315.866 66.2689 319.831 63.3066 324.16 60.709C328.49 58.1113 332.773 56.8125 337.012 56.8125C341.432 56.8125 345.101 57.9062 348.018 60.0938C350.934 62.2812 353.122 65.1296 354.58 68.6387C356.084 72.1478 356.836 75.9303 356.836 79.9863V108.424C356.836 109.7 356.882 110.953 356.973 112.184C357.109 113.414 357.611 114.576 358.477 115.67C359.525 116.992 360.436 118.017 361.211 118.746C362.031 119.475 362.441 120.82 362.441 122.779C362.441 124.785 361.826 126.334 360.596 127.428C359.365 128.476 357.77 129 355.811 129H327.236C325.322 129 323.841 128.43 322.793 127.291C321.79 126.152 321.289 124.648 321.289 122.779C321.289 121.048 321.676 119.703 322.451 118.746C323.271 117.743 324.069 116.718 324.844 115.67C325.664 114.576 326.074 113.049 326.074 111.09V87.3691C326.074 85.2272 325.641 83.1309 324.775 81.0801C323.955 79.0293 322.223 78.0039 319.58 78.0039C317.985 78.0039 316.618 78.3229 315.479 78.9609C314.339 79.5534 313.268 80.3281 312.266 81.2852V109.244C312.266 110.475 312.311 111.728 312.402 113.004C312.493 114.234 312.949 115.374 313.77 116.422C314.727 117.561 315.524 118.495 316.162 119.225C316.8 119.908 317.119 121.093 317.119 122.779C317.119 124.648 316.595 126.152 315.547 127.291C314.544 128.43 313.086 129 311.172 129H282.598C280.638 129 279.043 128.476 277.812 127.428C276.582 126.334 275.967 124.785 275.967 122.779C275.967 121.275 276.24 120.113 276.787 119.293C277.38 118.427 278.04 117.63 278.77 116.9C279.499 116.171 280.137 115.283 280.684 114.234C281.276 113.186 281.572 111.751 281.572 109.928V84.5664C281.572 82.5156 281.253 80.9661 280.615 79.918C279.977 78.8698 279.225 78.0495 278.359 77.457C277.493 76.819 276.742 76.1354 276.104 75.4062C275.465 74.6771 275.146 73.5833 275.146 72.125C275.146 70.3477 275.739 68.9577 276.924 67.9551C278.109 66.9069 279.43 66.0866 280.889 65.4941L295.654 59.5469C297.386 58.8177 299.141 58.1797 300.918 57.6328C302.741 57.0859 304.609 56.8125 306.523 56.8125ZM400.449 130.982C392.656 130.982 386.504 129.182 381.992 125.582C377.526 121.936 375.293 116.012 375.293 107.809V78.0723C375.293 76.1126 374.86 74.6543 373.994 73.6973C373.128 72.7402 372.126 71.9655 370.986 71.373C369.847 70.735 368.844 69.9831 367.979 69.1172C367.113 68.2057 366.68 66.8385 366.68 65.0156C366.68 63.1471 367.34 61.6888 368.662 60.6406C369.984 59.5469 371.533 59 373.311 59H376.387C377.708 59 379.007 58.3392 380.283 57.0176C381.605 55.6504 382.926 53.9642 384.248 51.959C385.615 49.9538 387.028 47.9714 388.486 46.0117C389.99 44.0065 391.585 42.3431 393.271 41.0215C394.958 39.6543 396.803 38.9707 398.809 38.9707C401.087 38.9707 402.865 39.6087 404.141 40.8848C405.417 42.1608 406.055 43.9382 406.055 46.2168V59H421.572C423.304 59 424.785 59.4102 426.016 60.2305C427.246 61.0508 427.861 62.418 427.861 64.332C427.861 66.8841 427.041 68.821 425.4 70.1426C423.805 71.4642 421.868 72.3529 419.59 72.8086C417.311 73.2188 415.169 73.4238 413.164 73.4238H406.055V100.494C406.055 102.727 406.488 104.846 407.354 106.852C408.219 108.811 409.997 109.791 412.686 109.791C414.463 109.791 415.967 109.29 417.197 108.287C418.473 107.239 419.658 106.214 420.752 105.211C421.891 104.208 423.099 103.707 424.375 103.707C425.56 103.707 426.38 104.277 426.836 105.416C427.337 106.555 427.588 107.581 427.588 108.492C427.588 113.095 426.198 117.083 423.418 120.455C420.638 123.827 417.152 126.425 412.959 128.248C408.812 130.071 404.642 130.982 400.449 130.982ZM440.098 81.9688H465.117C466.439 81.9688 467.555 82.2878 468.467 82.9258C469.424 83.5182 469.902 84.5436 469.902 86.002C469.902 87.0046 469.72 88.0072 469.355 89.0098C469.036 90.0124 468.74 91.015 468.467 92.0176C468.057 93.4759 467.578 94.9798 467.031 96.5293C466.484 98.0332 465.71 99.3092 464.707 100.357C463.704 101.36 462.246 101.861 460.332 101.861H435.244C433.923 101.861 432.783 101.565 431.826 100.973C430.915 100.335 430.459 99.2865 430.459 97.8281C430.459 96.5521 430.641 95.3216 431.006 94.1367C431.416 92.9518 431.849 91.7897 432.305 90.6504V90.5137C432.487 90.2402 432.624 89.8301 432.715 89.2832C433.079 87.3691 433.854 85.6829 435.039 84.2246C436.27 82.7207 437.956 81.9688 440.098 81.9688ZM552.617 134.469C552.617 138.251 551.432 141.419 549.062 143.971C546.693 146.568 543.617 148.665 539.834 150.26C536.097 151.855 532.064 153.062 527.734 153.883C523.451 154.703 519.303 155.25 515.293 155.523C511.328 155.842 508.001 156.002 505.312 156.002C503.49 156.002 501.165 155.934 498.34 155.797C495.56 155.706 492.643 155.432 489.59 154.977C486.536 154.521 483.665 153.792 480.977 152.789C478.333 151.832 476.169 150.488 474.482 148.756C472.796 147.024 471.953 144.837 471.953 142.193C471.953 138.912 473.229 136.337 475.781 134.469C478.333 132.646 481.41 131.279 485.01 130.367C483.369 129.729 482.002 128.818 480.908 127.633C479.814 126.402 479.268 124.762 479.268 122.711C479.268 119.977 480.133 117.789 481.865 116.148C483.643 114.508 485.876 113.277 488.564 112.457C491.299 111.591 494.079 110.976 496.904 110.611C492.848 109.654 489.043 108.196 485.488 106.236C481.979 104.277 479.131 101.656 476.943 98.375C474.801 95.0938 473.73 91.0378 473.73 86.207C473.73 81.0117 474.733 76.6139 476.738 73.0137C478.789 69.3678 481.523 66.4284 484.941 64.1953C488.359 61.9167 492.188 60.2305 496.426 59.1367C500.71 57.9974 505.085 57.3594 509.551 57.2227C510.964 53.4857 512.65 49.7487 514.609 46.0117C516.615 42.2747 519.144 39.153 522.197 36.6465C525.296 34.14 529.124 32.8867 533.682 32.8867C537.419 32.8867 540.495 33.9805 542.91 36.168C545.371 38.3555 546.602 41.3633 546.602 45.1914C546.602 48.2904 545.827 51.1159 544.277 53.668C542.773 56.1745 540.267 57.4277 536.758 57.4277C534.297 57.4277 532.406 56.8125 531.084 55.582C529.762 54.306 528.623 53.0299 527.666 51.7539C526.709 50.4779 525.57 49.8398 524.248 49.8398C522.835 49.8398 521.628 50.7285 520.625 52.5059C519.622 54.2376 518.825 55.901 518.232 57.4961C523.109 58.0885 527.734 59.4102 532.109 61.4609C536.484 63.4661 540.039 66.3145 542.773 70.0059C545.553 73.6973 546.943 78.3457 546.943 83.9512C546.943 88.9186 545.918 93.2025 543.867 96.8027C541.862 100.357 539.15 103.274 535.732 105.553C532.36 107.831 528.555 109.518 524.316 110.611C520.124 111.66 515.84 112.184 511.465 112.184C510.052 112.184 508.662 112.138 507.295 112.047C506.748 112.594 506.475 113.141 506.475 113.688C506.475 114.599 507.135 115.26 508.457 115.67C509.824 116.035 511.442 116.262 513.311 116.354C515.179 116.445 516.934 116.467 518.574 116.422C520.26 116.376 521.423 116.354 522.061 116.354C525.342 116.354 528.76 116.513 532.314 116.832C535.869 117.105 539.173 117.812 542.227 118.951C545.326 120.09 547.832 121.891 549.746 124.352C551.66 126.767 552.617 130.139 552.617 134.469ZM508.389 67.6816C507.067 67.6816 506.133 68.2285 505.586 69.3223C505.039 70.416 504.697 71.6693 504.561 73.082C504.469 74.4948 504.424 75.6569 504.424 76.5684C504.424 77.7988 504.492 79.7812 504.629 82.5156C504.811 85.2044 505.153 88.0299 505.654 90.9922C506.156 93.9544 506.908 96.4837 507.91 98.5801C508.958 100.631 510.371 101.656 512.148 101.656C513.561 101.656 514.564 101.155 515.156 100.152C515.749 99.1042 516.09 97.8965 516.182 96.5293C516.318 95.1621 516.387 93.9772 516.387 92.9746C516.387 91.653 516.318 89.625 516.182 86.8906C516.045 84.1107 515.726 81.2624 515.225 78.3457C514.769 75.3835 513.994 72.877 512.9 70.8262C511.807 68.7298 510.303 67.6816 508.389 67.6816ZM496.494 136.725C496.494 138.137 497.178 139.254 498.545 140.074C499.958 140.895 501.644 141.51 503.604 141.92C505.609 142.33 507.523 142.581 509.346 142.672C511.169 142.809 512.513 142.877 513.379 142.877C514.382 142.877 515.885 142.717 517.891 142.398C519.941 142.125 521.833 141.601 523.564 140.826C525.296 140.051 526.162 138.935 526.162 137.477C526.162 135.426 525.296 133.99 523.564 133.17C521.878 132.35 519.964 131.871 517.822 131.734C515.68 131.598 513.903 131.529 512.49 131.529C510.394 131.529 508.298 131.575 506.201 131.666C504.105 131.757 502.008 131.826 499.912 131.871C498.955 132.555 498.135 133.307 497.451 134.127C496.813 134.947 496.494 135.813 496.494 136.725ZM553.164 113.277C553.164 109.085 554.144 105.598 556.104 102.818C558.063 99.9928 560.615 97.737 563.76 96.0508C566.95 94.319 570.391 93.0885 574.082 92.3594C577.773 91.6302 581.328 91.2656 584.746 91.2656C585.749 91.2656 586.774 91.2884 587.822 91.334C588.87 91.334 589.896 91.4251 590.898 91.6074V73.834C590.898 72.6947 590.648 71.373 590.146 69.8691C589.691 68.3652 588.734 67.6133 587.275 67.6133C585.863 67.6133 584.974 68.2057 584.609 69.3906C584.29 70.5299 584.131 71.6237 584.131 72.6719C584.131 73.1276 584.131 73.6061 584.131 74.1074C584.176 74.5632 584.199 75.0417 584.199 75.543C584.199 80.237 582.581 83.541 579.346 85.4551C576.11 87.3236 572.419 88.2578 568.271 88.2578C564.808 88.2578 561.8 87.4831 559.248 85.9336C556.696 84.3841 555.42 81.6497 555.42 77.7305C555.42 76.181 555.716 74.6771 556.309 73.2188C556.947 71.7604 557.744 70.4616 558.701 69.3223C561.481 65.9499 564.967 63.375 569.16 61.5977C573.398 59.8203 577.842 58.6126 582.49 57.9746C587.184 57.291 591.582 56.9492 595.684 56.9492C600.332 56.9492 604.593 57.61 608.467 58.9316C612.34 60.2533 615.439 62.4635 617.764 65.5625C620.088 68.6159 621.25 72.7402 621.25 77.9355V109.449C621.25 110.224 621.432 110.908 621.797 111.5C622.161 112.092 622.777 112.389 623.643 112.389C624.326 112.389 624.896 112.184 625.352 111.773C625.853 111.318 626.445 111.09 627.129 111.09C628.451 111.09 629.43 111.546 630.068 112.457C630.752 113.368 631.094 114.439 631.094 115.67C631.094 118.86 630.114 121.617 628.154 123.941C626.24 126.22 623.848 127.952 620.977 129.137C618.105 130.367 615.212 130.982 612.295 130.982C608.877 130.982 605.413 130.23 601.904 128.727C598.441 127.223 596.048 124.876 594.727 121.686C592.402 124.921 589.212 127.291 585.156 128.795C581.146 130.253 577.204 130.982 573.33 130.982C569.775 130.982 566.449 130.322 563.35 129C560.296 127.633 557.835 125.628 555.967 122.984C554.098 120.341 553.164 117.105 553.164 113.277ZM583.994 107.262C583.994 109.085 584.427 110.816 585.293 112.457C586.159 114.052 587.64 114.85 589.736 114.85C590.146 114.85 590.534 114.804 590.898 114.713V100.562C590.124 100.243 589.326 100.084 588.506 100.084C586.774 100.084 585.589 100.95 584.951 102.682C584.313 104.368 583.994 105.895 583.994 107.262ZM670.4 88.4629V108.424C670.4 111.067 670.697 112.844 671.289 113.756C671.927 114.667 673.568 115.396 676.211 115.943C678.535 116.399 680.381 116.946 681.748 117.584C683.161 118.176 683.867 119.908 683.867 122.779C683.867 124.83 683.252 126.38 682.021 127.428C680.791 128.476 679.173 129 677.168 129H641.074C639.115 129 637.497 128.476 636.221 127.428C634.945 126.38 634.307 124.83 634.307 122.779C634.307 121.139 634.603 119.908 635.195 119.088C635.833 118.268 636.54 117.538 637.314 116.9C638.135 116.217 638.841 115.351 639.434 114.303C640.072 113.209 640.391 111.568 640.391 109.381V84.5664C640.391 82.5156 640.026 80.9889 639.297 79.9863C638.613 78.9382 637.816 78.1178 636.904 77.5254C636.038 76.9329 635.241 76.2721 634.512 75.543C633.828 74.7682 633.486 73.6289 633.486 72.125C633.486 70.3477 634.056 68.9577 635.195 67.9551C636.38 66.9069 637.725 66.0866 639.229 65.4941L656.318 58.7266C657.412 58.2708 658.529 57.8379 659.668 57.4277C660.807 57.0176 661.992 56.8125 663.223 56.8125C664.818 56.8125 666.003 57.4277 666.777 58.6582C667.552 59.8431 668.076 61.2331 668.35 62.8281C668.669 64.3776 668.896 65.7448 669.033 66.9297C669.17 67.75 669.307 68.5703 669.443 69.3906C669.58 70.2109 669.694 71.0312 669.785 71.8516C671.198 67.6589 673.363 64.1042 676.279 61.1875C679.242 58.2708 683.32 56.8125 688.516 56.8125C692.207 56.8125 695.101 57.724 697.197 59.5469C699.339 61.3698 700.866 63.7168 701.777 66.5879C702.689 69.4134 703.145 72.4212 703.145 75.6113C703.145 78.5736 702.757 81.4447 701.982 84.2246C701.208 86.959 699.84 89.2148 697.881 90.9922C695.967 92.7695 693.255 93.6582 689.746 93.6582C685.918 93.6582 683.115 93.0658 681.338 91.8809C679.606 90.696 678.49 89.2376 677.988 87.5059C677.487 85.7741 677.214 84.0423 677.168 82.3105C677.168 80.5788 677.031 79.1204 676.758 77.9355C676.484 76.7507 675.664 76.1582 674.297 76.1582C673.066 76.1582 672.178 77.0241 671.631 78.7559C671.084 80.4421 670.742 82.265 670.605 84.2246C670.469 86.1842 670.4 87.597 670.4 88.4629ZM707.314 96.2559C707.314 89.3288 708.659 82.8802 711.348 76.9102C714.036 70.8945 717.956 66.041 723.105 62.3496C728.255 58.6582 734.544 56.8125 741.973 56.8125C746.439 56.8125 750.518 57.7695 754.209 59.6836V53.873C754.209 51.8678 753.867 50.3639 753.184 49.3613C752.546 48.3587 751.794 47.5612 750.928 46.9688C750.107 46.3307 749.355 45.6471 748.672 44.918C748.034 44.1432 747.715 43.0039 747.715 41.5C747.715 39.6315 748.262 38.2188 749.355 37.2617C750.495 36.2591 751.839 35.4616 753.389 34.8691L768.223 28.9219C769.954 28.1927 771.732 27.5547 773.555 27.0078C775.378 26.4609 777.246 26.1875 779.16 26.1875C781.029 26.1875 782.441 26.8483 783.398 28.1699C784.401 29.446 784.902 30.9499 784.902 32.6816V108.902C784.902 111.135 785.062 112.685 785.381 113.551C785.7 114.417 786.634 115.67 788.184 117.311C789.095 118.268 789.733 119.088 790.098 119.771C790.462 120.41 790.645 121.412 790.645 122.779C790.645 124.739 790.007 126.266 788.73 127.359C787.454 128.453 785.859 129 783.945 129H768.633C766.081 129 763.62 128.225 761.25 126.676C758.926 125.081 757.285 123.076 756.328 120.66C753.548 123.668 750.381 126.152 746.826 128.111C743.317 130.025 739.375 130.982 735 130.982C730.352 130.982 726.273 129.98 722.764 127.975C719.3 125.924 716.429 123.212 714.15 119.84C711.872 116.422 710.163 112.662 709.023 108.561C707.884 104.459 707.314 100.357 707.314 96.2559ZM739.033 92.8379C739.033 94.4785 739.147 96.4609 739.375 98.7852C739.648 101.064 740.127 103.32 740.811 105.553C741.54 107.74 742.588 109.586 743.955 111.09C745.368 112.548 747.191 113.277 749.424 113.277C751.156 113.277 752.751 112.685 754.209 111.5V74.9961C753.434 74.2214 752.568 73.6061 751.611 73.1504C750.654 72.6491 749.606 72.3984 748.467 72.3984C746.37 72.3984 744.684 73.1732 743.408 74.7227C742.178 76.2266 741.243 78.1178 740.605 80.3965C739.967 82.6296 739.535 84.8854 739.307 87.1641C739.124 89.4427 739.033 91.334 739.033 92.8379ZM866.045 83.8145C866.045 87.8704 864.837 90.9466 862.422 93.043C860.052 95.1393 856.908 96.1875 852.988 96.1875H825.439C826.488 100.107 828.356 103.411 831.045 106.1C833.734 108.743 837.607 110.064 842.666 110.064C844.671 110.064 846.654 109.654 848.613 108.834C850.618 107.968 852.487 106.965 854.219 105.826C855.996 104.687 857.546 103.707 858.867 102.887C860.189 102.021 861.191 101.588 861.875 101.588C863.197 101.588 864.154 102.066 864.746 103.023C865.339 103.935 865.635 104.983 865.635 106.168C865.635 110.315 864.655 113.961 862.695 117.105C860.781 120.204 858.229 122.779 855.039 124.83C851.895 126.881 848.431 128.408 844.648 129.41C840.911 130.458 837.22 130.982 833.574 130.982C826.419 130.982 820.107 129.501 814.639 126.539C809.17 123.577 804.886 119.43 801.787 114.098C798.734 108.72 797.207 102.408 797.207 95.1621C797.207 87.4147 798.688 80.6699 801.65 74.9277C804.658 69.1855 808.965 64.7422 814.57 61.5977C820.176 58.4076 826.898 56.8125 834.736 56.8125C840.16 56.8125 845.241 57.8379 849.98 59.8887C854.766 61.9395 858.639 64.9701 861.602 68.9805C864.564 72.9909 866.045 77.9355 866.045 83.8145ZM824.209 85.6602C824.209 86.1615 824.209 86.6628 824.209 87.1641H831.318C833.05 87.1641 834.235 86.7767 834.873 86.002C835.511 85.1816 835.83 83.9512 835.83 82.3105C835.83 81.2168 835.693 79.7812 835.42 78.0039C835.146 76.2266 834.6 74.6315 833.779 73.2188C833.005 71.806 831.865 71.0996 830.361 71.0996C828.994 71.0996 827.9 71.6693 827.08 72.8086C826.26 73.9023 825.645 75.2923 825.234 76.9785C824.824 78.6191 824.551 80.237 824.414 81.832C824.277 83.4271 824.209 84.7031 824.209 85.6602Z" fill="black"/>
<path d="M10.8887 253L11.2305 242.795C11.6211 232.964 11.8164 225.201 11.8164 219.504C11.8164 213.579 11.6699 207.183 11.377 200.314C11.084 193.446 10.9212 189.8 10.8887 189.377H45.5078L45.3125 193.381C38.1185 193.12 28.1087 192.99 15.2832 192.99C15.4134 200.217 15.4785 208.485 15.4785 217.795C25.6999 217.795 33.7077 217.6 39.502 217.209V221.604C31.7546 221.278 23.7467 221.115 15.4785 221.115V231.906C15.4785 238.905 15.5599 244.764 15.7227 249.484C27.7344 249.484 38.6882 249.224 48.584 248.703L48.3887 253H10.8887ZM98.4375 206.467L98.4863 216.281C98.4863 230.799 98.7793 243.039 99.3652 253L95.2637 253.098C95.0033 251.568 94.873 249.81 94.873 247.824H94.3848C92.8874 249.615 90.6901 251.128 87.793 252.365C84.8958 253.602 81.6243 254.221 77.9785 254.221C72.0215 254.221 67.1549 251.991 63.3789 247.531C59.6354 243.039 57.7637 237.554 57.7637 231.076C57.7637 223.329 59.8958 217.014 64.1602 212.131C68.4245 207.248 74.1211 204.807 81.25 204.807C84.2122 204.807 86.7676 205.148 88.916 205.832C91.097 206.483 92.7734 207.443 93.9453 208.713H94.043C94.043 202.854 93.9128 194.715 93.6523 184.299L98.7793 184.006C98.5189 187.912 98.3887 192.648 98.3887 198.215C98.3887 201.796 98.4049 204.546 98.4375 206.467ZM94.043 212.277C92.6432 210.943 90.9017 209.95 88.8184 209.299C86.735 208.648 84.4564 208.322 81.9824 208.322C75.5046 208.322 70.6217 210.275 67.334 214.182C64.0788 218.055 62.4512 223.687 62.4512 231.076C62.4512 236.903 63.9974 241.558 67.0898 245.041C70.2148 248.492 74.5117 250.217 79.9805 250.217C82.7148 250.217 85.2051 249.777 87.4512 248.898C89.6973 247.987 92.1387 246.148 94.7754 243.381C94.7754 241.721 94.7917 239.23 94.8242 235.91C94.8242 227.447 94.5638 219.569 94.043 212.277ZM147.803 193.234C140.641 193.072 135.954 192.99 133.74 192.99C133.415 200.607 133.252 209.413 133.252 219.406C133.252 230.051 133.415 241.249 133.74 253H128.662C129.183 239.361 129.443 228.195 129.443 219.504C129.443 214.914 129.378 210.715 129.248 206.906C129.15 203.098 128.988 198.459 128.76 192.99C126.188 192.99 122.38 193.072 117.334 193.234L107.666 193.479V189.377H154.834L154.639 193.381L147.803 193.234ZM159.912 228.586C159.912 234.901 161.849 240.126 165.723 244.26C169.629 248.361 174.886 250.412 181.494 250.412C186.507 250.412 190.674 249.908 193.994 248.898L193.311 252.805C192.301 253.13 190.739 253.439 188.623 253.732C186.507 254.058 184.261 254.221 181.885 254.221C173.258 254.221 166.764 251.958 162.402 247.434C158.073 242.876 155.908 237.261 155.908 230.588C155.908 227.04 156.331 223.752 157.178 220.725C158.057 217.697 159.359 214.93 161.084 212.424C165.186 207.085 170.459 204.416 176.904 204.416C182.699 204.416 187.191 206.288 190.381 210.031C193.604 213.775 195.215 218.397 195.215 223.898C195.215 225.689 195.15 227.121 195.02 228.195L159.912 228.586ZM160.205 225.119H190.82C190.82 219.618 189.632 215.386 187.256 212.424C184.88 209.462 181.364 207.98 176.709 207.98C172.38 207.98 168.734 209.445 165.771 212.375C162.842 215.272 160.986 219.52 160.205 225.119ZM211.67 228.879C211.67 235.487 213.656 240.728 217.627 244.602C221.631 248.475 226.839 250.412 233.252 250.412C234.814 250.412 236.279 250.282 237.646 250.021C239.014 249.729 240.69 249.257 242.676 248.605V252.121C241.569 252.805 239.958 253.326 237.842 253.684C235.758 254.042 233.87 254.221 232.178 254.221C224.788 254.221 218.815 252.007 214.258 247.58C209.733 243.153 207.471 237.456 207.471 230.49C207.471 225.184 208.561 220.692 210.742 217.014C212.956 213.335 215.837 210.422 219.385 208.273C222.965 206.092 227.327 205.002 232.471 205.002C235.824 205.002 238.525 205.441 240.576 206.32L239.746 211.203C237.598 210.52 235.791 210.015 234.326 209.689C232.894 209.364 231.413 209.201 229.883 209.201C226.758 209.201 223.747 210.064 220.85 211.789C217.952 213.514 215.69 215.842 214.062 218.771C212.467 221.669 211.67 225.038 211.67 228.879ZM254.492 184.201L260.254 184.006L260.107 189.475C259.88 200.868 259.766 208.339 259.766 211.887H259.863C262.5 209.641 265.316 207.932 268.311 206.76C271.338 205.588 274.251 205.002 277.051 205.002C282.161 205.002 286.165 206.255 289.062 208.762C291.992 211.236 293.457 215.549 293.457 221.701V225.217C293.392 226.324 293.359 228.146 293.359 230.686C293.359 238.368 293.392 245.806 293.457 253H288.574C289.225 244.536 289.551 234.169 289.551 221.896C289.551 217.307 288.428 214.019 286.182 212.033C283.968 210.015 280.762 209.006 276.562 209.006C270.996 209.006 265.397 211.105 259.766 215.305C259.766 235.357 259.896 247.922 260.156 253H255.469C255.729 243.234 255.859 231.06 255.859 216.477C255.859 202.316 255.404 191.558 254.492 184.201ZM337.451 233.42L337.5 243.332C337.5 246.164 337.484 248.215 337.451 249.484C349.43 249.484 360.173 249.322 369.678 248.996L369.482 253H333.154C333.415 243.234 333.545 232.069 333.545 219.504C333.545 213.612 333.529 208.16 333.496 203.146C333.464 198.101 333.35 193.511 333.154 189.377H338.184C337.63 196.701 337.354 206.743 337.354 219.504C337.354 223.117 337.386 227.756 337.451 233.42ZM403.174 252.707C400.342 253.553 397.917 253.977 395.898 253.977C390.202 253.977 386.523 252.398 384.863 249.24C383.203 246.05 382.373 240.939 382.373 233.908C382.373 225.38 382.406 217.779 382.471 211.105C380.518 211.105 377.49 211.203 373.389 211.398L373.584 207.395C377.197 207.59 380.306 207.688 382.91 207.688C382.91 204.139 383.105 199.436 383.496 193.576L387.793 193.283C387.174 200.803 386.865 205.604 386.865 207.688C389.697 207.688 394.938 207.525 402.588 207.199L402.295 211.398C395.589 211.203 390.348 211.105 386.572 211.105C386.377 216.802 386.279 223.508 386.279 231.223C386.279 239.686 387.191 244.992 389.014 247.141C390.869 249.257 393.49 250.314 396.875 250.314C397.819 250.314 398.796 250.233 399.805 250.07C400.814 249.875 402.067 249.582 403.564 249.191L403.174 252.707ZM453.809 206.467L453.857 216.281C453.857 230.799 454.15 243.039 454.736 253L450.635 253.098C450.374 251.568 450.244 249.81 450.244 247.824H449.756C448.258 249.615 446.061 251.128 443.164 252.365C440.267 253.602 436.995 254.221 433.35 254.221C427.393 254.221 422.526 251.991 418.75 247.531C415.007 243.039 413.135 237.554 413.135 231.076C413.135 223.329 415.267 217.014 419.531 212.131C423.796 207.248 429.492 204.807 436.621 204.807C439.583 204.807 442.139 205.148 444.287 205.832C446.468 206.483 448.145 207.443 449.316 208.713H449.414C449.414 202.854 449.284 194.715 449.023 184.299L454.15 184.006C453.89 187.912 453.76 192.648 453.76 198.215C453.76 201.796 453.776 204.546 453.809 206.467ZM449.414 212.277C448.014 210.943 446.273 209.95 444.189 209.299C442.106 208.648 439.827 208.322 437.354 208.322C430.876 208.322 425.993 210.275 422.705 214.182C419.45 218.055 417.822 223.687 417.822 231.076C417.822 236.903 419.368 241.558 422.461 245.041C425.586 248.492 429.883 250.217 435.352 250.217C438.086 250.217 440.576 249.777 442.822 248.898C445.068 247.987 447.51 246.148 450.146 243.381C450.146 241.721 450.163 239.23 450.195 235.91C450.195 227.447 449.935 219.569 449.414 212.277Z" fill="black"/>
</svg>
